<svg width="30" height="31" viewBox="0 0 30 31" fill="none" xmlns="http://www.w3.org/2000/svg">
<path d="M15 3.98523C8.373 3.98523 3 9.35823 3 15.9852C3 21.6082 6.872 26.3132 12.092 27.6152C12.036 27.4532 12 27.2652 12 27.0322V24.9812C11.513 24.9812 10.697 24.9812 10.492 24.9812C9.671 24.9812 8.941 24.6282 8.587 23.9722C8.194 23.2432 8.126 22.1282 7.152 21.4462C6.863 21.2192 7.083 20.9602 7.416 20.9952C8.031 21.1692 8.541 21.5912 9.021 22.2172C9.499 22.8442 9.724 22.9862 10.617 22.9862C11.05 22.9862 11.698 22.9612 12.308 22.8652C12.636 22.0322 13.203 21.2652 13.896 20.9032C9.9 20.4922 7.993 18.5042 7.993 15.8052C7.993 14.6432 8.488 13.5192 9.329 12.5722C9.053 11.6322 8.706 9.71523 9.435 8.98523C11.233 8.98523 12.32 10.1512 12.581 10.4662C13.477 10.1592 14.461 9.98523 15.495 9.98523C16.531 9.98523 17.519 10.1592 18.417 10.4682C18.675 10.1552 19.763 8.98523 21.565 8.98523C22.297 9.71623 21.946 11.6412 21.667 12.5792C22.503 13.5242 22.995 14.6452 22.995 15.8052C22.995 18.5022 21.091 20.4892 17.101 20.9022C18.199 21.4752 19 23.0852 19 24.2982V27.0322C19 27.1362 18.977 27.2112 18.965 27.3002C23.641 25.6612 27 21.2212 27 15.9852C27 9.35823 21.627 3.98523 15 3.98523Z" fill="white"/>
</svg>
