<svg width="30" height="31" viewBox="0 0 30 31" fill="none" xmlns="http://www.w3.org/2000/svg">
<path d="M9 25.9852H4V10.9852H9V25.9852ZM6.501 8.98523C5.118 8.98523 4 7.86423 4 6.48423C4 5.10423 5.12 3.98523 6.501 3.98523C7.879 3.98523 9 5.10623 9 6.48423C9 7.86423 7.879 8.98523 6.501 8.98523ZM27 25.9852H22.193V18.6852C22.193 16.9442 22.16 14.7052 19.694 14.7052C17.191 14.7052 16.806 16.6012 16.806 18.5592V25.9852H12V10.9742H16.614V13.0252H16.679C17.321 11.8452 18.89 10.6012 21.23 10.6012C26.1 10.6012 27 13.7102 27 17.7522C27 17.7522 27 25.9852 27 25.9852Z" fill="white"/>
</svg>
