<svg width="30" height="31" viewBox="0 0 30 31" fill="none" xmlns="http://www.w3.org/2000/svg">
<path d="M15 3.98523C8.4 3.98523 3 9.38523 3 15.9852C3 22.5852 8.4 27.9852 15 27.9852C21.6 27.9852 27 22.5852 27 15.9852C27 9.38523 21.6 3.98523 15 3.98523ZM19.731 21.9852C19.511 21.9852 19.401 21.8752 19.181 21.7652C17.531 20.7742 15.441 20.2252 13.241 20.2252C12.031 20.2252 10.711 20.4452 9.611 20.6652C9.391 20.6652 9.171 20.7752 9.061 20.7752C8.621 20.7752 8.291 20.4452 8.291 20.0052C8.291 19.5652 8.511 19.2352 8.951 19.2352C10.381 18.9052 11.812 18.6852 13.352 18.6852C15.882 18.6852 18.192 19.3452 20.172 20.4452C20.392 20.6652 20.612 20.7752 20.612 21.2152C20.39 21.7652 20.06 21.9852 19.731 21.9852ZM20.94 18.9062C20.72 18.9062 20.5 18.7962 20.28 18.6862C18.41 17.4762 15.769 16.8162 12.91 16.8162C11.48 16.8162 10.159 17.0362 9.17 17.2562C8.95 17.3662 8.84 17.3662 8.62 17.3662C8.07 17.3662 7.739 16.9262 7.739 16.4852C7.739 15.9352 7.959 15.7152 8.509 15.4942C9.829 15.1642 11.15 14.8342 13.02 14.8342C16.1 14.8342 18.96 15.6042 21.381 17.0342C21.711 17.2542 21.931 17.5842 21.931 17.9152C21.82 18.4652 21.491 18.9062 20.94 18.9062ZM22.37 15.3852C22.15 15.3852 22.04 15.2752 21.71 15.1652C19.51 13.9552 16.32 13.1852 13.24 13.1852C11.7 13.1852 10.05 13.4052 8.619 13.7352C8.399 13.7352 8.289 13.8452 7.959 13.8452C7.299 13.9562 6.859 13.4052 6.859 12.7462C6.859 12.0872 7.189 11.7552 7.629 11.6462C9.39 11.2052 11.26 10.9852 13.24 10.9852C16.65 10.9852 20.17 11.7552 22.921 13.1852C23.251 13.4052 23.581 13.7352 23.581 14.2852C23.471 14.9452 23.03 15.3852 22.37 15.3852Z" fill="white"/>
</svg>
