<svg width="30" height="31" viewBox="0 0 30 31" fill="none" xmlns="http://www.w3.org/2000/svg">
<path d="M28 7.92223C27.043 8.34723 26.015 8.63323 24.936 8.76223C26.038 8.10223 26.883 7.05723 27.281 5.81123C26.251 6.42223 25.109 6.86623 23.893 7.10623C22.92 6.06923 21.534 5.42123 20 5.42123C17.054 5.42123 14.666 7.81023 14.666 10.7552C14.666 11.1732 14.714 11.5812 14.804 11.9702C10.371 11.7482 6.44099 9.62423 3.80899 6.39623C3.35099 7.18423 3.08799 8.10023 3.08799 9.07923C3.08799 10.9292 4.02899 12.5622 5.45999 13.5182C4.58599 13.4902 3.76299 13.2502 3.04399 12.8512C3.04399 12.8742 3.04399 12.8952 3.04399 12.9182C3.04399 15.5032 4.88199 17.6592 7.32299 18.1482C6.87599 18.2702 6.40399 18.3352 5.91699 18.3352C5.57399 18.3352 5.23899 18.3012 4.91399 18.2402C5.59299 20.3592 7.56299 21.9022 9.89699 21.9452C8.07199 23.3762 5.77199 24.2292 3.27199 24.2292C2.84199 24.2292 2.41699 24.2042 1.99899 24.1542C4.35999 25.6672 7.16299 26.5502 10.176 26.5502C19.988 26.5502 25.352 18.4222 25.352 11.3732C25.352 11.1422 25.347 10.9122 25.337 10.6832C26.38 9.93023 27.285 8.99123 28 7.92223Z" fill="white"/>
</svg>
